<svg width="720" height="1472" viewBox="0 0 720 1472" class="keymap" xmlns="http://www.w3.org/2000/svg" xmlns:xlink="http://www.w3.org/1999/xlink">
<style>/* inherit to force styles through use tags */
svg path {
    fill: inherit;
}

/* font and background color specifications */
svg.keymap {
    font-family: SFMono-Regular,Consolas,Liberation Mono,Menlo,monospace;
    font-size: 14px;
    font-kerning: normal;
    text-rendering: optimizeLegibility;
    fill: #24292e;
}

/* default key styling */
rect.key {
    fill: #f6f8fa;
}

rect.key, rect.combo {
    stroke: #c9cccf;
    stroke-width: 1;
}

/* default key side styling, only used is draw_key_sides is set */
rect.side {
    filter: brightness(90%);
}

/* color accent for combo boxes */
rect.combo, rect.combo-separate {
    fill: #cdf;
}

/* color accent for held keys */
rect.held, rect.combo.held {
    fill: #fdd;
}

/* color accent for ghost (optional) keys */
rect.ghost, rect.combo.ghost {
    stroke-dasharray: 4, 4;
    stroke-width: 2;
}

text {
    text-anchor: middle;
    dominant-baseline: middle;
}

/* styling for layer labels */
text.label {
    font-weight: bold;
    text-anchor: start;
    stroke: white;
    stroke-width: 4;
    paint-order: stroke;
}

/* styling for optional footer */
text.footer {
    text-anchor: end;
    dominant-baseline: auto;
    stroke: white;
    stroke-width: 4;
    paint-order: stroke;
}

/* styling for combo tap, and key non-tap label text */
text.combo, text.hold, text.shifted, text.left, text.right {
    font-size: 11px;
}

text.hold {
    text-anchor: middle;
    dominant-baseline: auto;
}

text.shifted {
    text-anchor: middle;
    dominant-baseline: hanging;
}

text.left {
    text-anchor: start;
}

text.right {
    text-anchor: end;
}

text.layer-activator {
    text-decoration: underline;
}

/* styling for hold/shifted label text in combo box */
text.combo.hold, text.combo.shifted, text.combo.left, text.combo.right {
    font-size: 8px;
}

/* lighter symbol for transparent keys */
text.trans {
    fill: #7b7e81;
}

/* styling for combo dendrons */
path.combo {
    stroke-width: 1;
    stroke: gray;
    fill: none;
}

/* Start Tabler Icons Cleanup */
/* cannot use height/width with glyphs */
.icon-tabler > path {
    fill: inherit;
    stroke: inherit;
    stroke-width: 2;
}
/* hide tabler's default box */
.icon-tabler > path[stroke="none"][fill="none"] {
    visibility: hidden;
}
/* End Tabler Icons Cleanup */
</style>
<g transform="translate(30, 0)" class="layer-default">
<text x="0" y="28" class="label" id="default">default:</text>
<g transform="translate(0, 56)">
<g transform="translate(90, 30)" class="key keypos-0">
<rect rx="6" ry="6" x="-28" y="-28" width="56" height="56" class="key"/>
<text x="0" y="0" class="key tap">W</text>
<a href="#x_x">
<text x="0" y="26" class="key hold layer-activator">2</text>
</a></g>
<g transform="translate(150, 30)" class="key keypos-1">
<rect rx="6" ry="6" x="-28" y="-28" width="56" height="56" class="key"/>
<text x="0" y="0" class="key tap">E</text>
</g>
<g transform="translate(210, 30)" class="key keypos-2">
<rect rx="6" ry="6" x="-28" y="-28" width="56" height="56" class="key"/>
<text x="0" y="0" class="key tap">R</text>
</g>
<g transform="translate(450, 30)" class="key keypos-3">
<rect rx="6" ry="6" x="-28" y="-28" width="56" height="56" class="key"/>
<text x="0" y="0" class="key tap">U</text>
</g>
<g transform="translate(510, 30)" class="key keypos-4">
<rect rx="6" ry="6" x="-28" y="-28" width="56" height="56" class="key"/>
<text x="0" y="0" class="key tap">I</text>
</g>
<g transform="translate(570, 30)" class="key keypos-5">
<rect rx="6" ry="6" x="-28" y="-28" width="56" height="56" class="key"/>
<text x="0" y="0" class="key tap">O</text>
</g>
<g transform="translate(30, 90)" class="key keypos-6">
<rect rx="6" ry="6" x="-28" y="-28" width="56" height="56" class="key"/>
<text x="0" y="0" class="key tap">A</text>
</g>
<g transform="translate(90, 90)" class="key keypos-7">
<rect rx="6" ry="6" x="-28" y="-28" width="56" height="56" class="key"/>
<text x="0" y="0" class="key tap">S</text>
</g>
<g transform="translate(150, 90)" class="key keypos-8">
<rect rx="6" ry="6" x="-28" y="-28" width="56" height="56" class="key"/>
<text x="0" y="0" class="key tap">D</text>
</g>
<g transform="translate(210, 90)" class="key keypos-9">
<rect rx="6" ry="6" x="-28" y="-28" width="56" height="56" class="key"/>
<text x="0" y="0" class="key tap">T</text>
</g>
<g transform="translate(450, 90)" class="key keypos-10">
<rect rx="6" ry="6" x="-28" y="-28" width="56" height="56" class="key"/>
<text x="0" y="0" class="key tap">H</text>
</g>
<g transform="translate(510, 90)" class="key keypos-11">
<rect rx="6" ry="6" x="-28" y="-28" width="56" height="56" class="key"/>
<text x="0" y="0" class="key tap">K</text>
<a href="#x_x">
<text x="0" y="26" class="key hold layer-activator">3</text>
</a></g>
<g transform="translate(570, 90)" class="key keypos-12">
<rect rx="6" ry="6" x="-28" y="-28" width="56" height="56" class="key"/>
<text x="0" y="0" class="key tap">L</text>
<a href="#x_x">
<text x="0" y="26" class="key hold layer-activator">1</text>
</a></g>
<g transform="translate(630, 90)" class="key keypos-13">
<rect rx="6" ry="6" x="-28" y="-28" width="56" height="56" class="key"/>
<text x="0" y="0" class="key tap">ENTER</text>
<text x="0" y="26" class="key hold"><tspan style="font-size: 64%">RIGHT SHIFT</tspan></text>
</g>
<g transform="translate(210, 150)" class="key keypos-14">
<rect rx="6" ry="6" x="-28" y="-28" width="56" height="56" class="key"/>
<text x="0" y="0" class="key tap">Z</text>
</g>
<g transform="translate(270, 150)" class="key keypos-15">
<rect rx="6" ry="6" x="-28" y="-28" width="56" height="56" class="key"/>
<text x="0" y="0" class="key tap">G</text>
</g>
<g transform="translate(390, 150)" class="key keypos-16">
<rect rx="6" ry="6" x="-28" y="-28" width="56" height="56" class="key"/>
<text x="0" y="0" class="key tap">M</text>
</g>
<g transform="translate(450, 150)" class="key keypos-17">
<rect rx="6" ry="6" x="-28" y="-28" width="56" height="56" class="key"/>
<text x="0" y="0" class="key tap">N</text>
</g>
<g class="combo combopos-0">
<rect rx="6" ry="6" x="106" y="17" width="28" height="26" class="combo"/>
<text x="120" y="30" class="combo tap">Q</text>
</g>
<g class="combo combopos-1">
<path d="M150,90 l40,0" class="combo"/>
<path d="M150,90 l-40,0" class="combo"/>
<rect rx="6" ry="6" x="136" y="77" width="28" height="26" class="combo"/>
<text x="150" y="90" class="combo tap">F</text>
</g>
<g class="combo combopos-2">
<path d="M330,90 l100,0" class="combo"/>
<path d="M330,90 l-100,0" class="combo"/>
<rect rx="6" ry="6" x="316" y="77" width="28" height="26" class="combo"/>
<text x="330" y="90" class="combo tap">Y</text>
</g>
<g class="combo combopos-3">
<rect rx="6" ry="6" x="526" y="17" width="28" height="26" class="combo"/>
<text x="540" y="30" class="combo tap">P</text>
</g>
<g class="combo combopos-4">
<rect rx="6" ry="6" x="166" y="77" width="28" height="26" class="combo"/>
<text x="180" y="90" class="combo tap">B</text>
</g>
<g class="combo combopos-5">
<rect rx="6" ry="6" x="466" y="77" width="28" height="26" class="combo"/>
<text x="480" y="90" class="combo tap">J</text>
</g>
<g class="combo combopos-6">
<rect rx="6" ry="6" x="106" y="77" width="28" height="26" class="combo"/>
<text x="120" y="90" class="combo tap">
<tspan x="120" dy="-0.6em" style="font-size: 88%">LANGUAGE</tspan><tspan x="120" dy="1.2em" style="font-size: 88%">2</tspan>
</text>
<text x="120" y="101" class="combo hold"><tspan style="font-size: 88%">LEFT GUI</tspan></text>
</g>
<g class="combo combopos-7">
<rect rx="6" ry="6" x="526" y="77" width="28" height="26" class="combo"/>
<text x="540" y="90" class="combo tap">
<tspan x="540" dy="-0.6em" style="font-size: 88%">LANGUAGE</tspan><tspan x="540" dy="1.2em" style="font-size: 88%">1</tspan>
</text>
<text x="540" y="101" class="combo hold"><tspan style="font-size: 78%">RIGHT GUI</tspan></text>
</g>
<g class="combo combopos-8">
<rect rx="6" ry="6" x="46" y="77" width="28" height="26" class="combo"/>
<text x="60" y="90" class="combo tap">LSHFT</text>
</g>
<g class="combo combopos-9">
<rect rx="6" ry="6" x="226" y="137" width="28" height="26" class="combo"/>
<text x="240" y="150" class="combo tap">LCTRL</text>
</g>
<g class="combo combopos-10">
<rect rx="6" ry="6" x="406" y="137" width="28" height="26" class="combo"/>
<text x="420" y="150" class="combo tap">
<tspan x="420" dy="-0.6em">RIGHT</tspan><tspan x="420" dy="1.2em">ALT</tspan>
</text>
</g>
<g class="combo combopos-11">
<rect rx="6" ry="6" x="586" y="47" width="28" height="26" class="combo"/>
<a href="#x_x">
<text x="600" y="60" class="combo tap layer-activator">5</text>
</a></g>
<g class="combo combopos-12">
<path d="M150,30 l-40,0" class="combo"/>
<path d="M150,30 l40,0" class="combo"/>
<rect rx="6" ry="6" x="136" y="17" width="28" height="26" class="combo"/>
<text x="150" y="30" class="combo tap">
<tspan x="150" dy="-0.6em">LEFT</tspan><tspan x="150" dy="1.2em">ALT</tspan>
</text>
</g>
<g class="combo combopos-13">
<path d="M510,30 l-40,0" class="combo"/>
<path d="M510,30 l40,0" class="combo"/>
<rect rx="6" ry="6" x="496" y="17" width="28" height="26" class="combo"/>
<text x="510" y="30" class="combo tap">RCTRL</text>
</g>
<g class="combo combopos-14">
<rect rx="6" ry="6" x="166" y="17" width="28" height="26" class="combo"/>
<text x="180" y="30" class="combo tap">X</text>
</g>
<g class="combo combopos-15">
<rect rx="6" ry="6" x="166" y="107" width="28" height="26" class="combo"/>
<text x="180" y="120" class="combo tap">C</text>
</g>
<g class="combo combopos-16">
<rect rx="6" ry="6" x="226" y="107" width="28" height="26" class="combo"/>
<text x="240" y="120" class="combo tap">V</text>
</g>
</g>
</g>
<g transform="translate(30, 236)" class="layer-1">
<text x="0" y="28" class="label" id="x_x">1:</text>
<g transform="translate(0, 56)">
<g transform="translate(90, 30)" class="key keypos-0">
<rect rx="6" ry="6" x="-28" y="-28" width="56" height="56" class="key"/>
<text x="0" y="0" class="key tap">&#x27;</text>
</g>
<g transform="translate(150, 30)" class="key keypos-1">
<rect rx="6" ry="6" x="-28" y="-28" width="56" height="56" class="key"/>
<text x="0" y="0" class="key tap">\</text>
</g>
<g transform="translate(210, 30)" class="key keypos-2">
<rect rx="6" ry="6" x="-28" y="-28" width="56" height="56" class="key"/>
<text x="0" y="0" class="key tap">=</text>
</g>
<g transform="translate(450, 30)" class="key keypos-3">
<rect rx="6" ry="6" x="-28" y="-28" width="56" height="56" class="key"/>
<text x="0" y="0" class="key tap">/</text>
</g>
<g transform="translate(510, 30)" class="key keypos-4">
<rect rx="6" ry="6" x="-28" y="-28" width="56" height="56" class="key"/>
<text x="0" y="0" class="key tap">`</text>
</g>
<g transform="translate(570, 30)" class="key keypos-5">
<rect rx="6" ry="6" x="-28" y="-28" width="56" height="56" class="key"/>
<text x="0" y="0" class="key tap">
<tspan x="0" dy="-0.6em">RIGHT</tspan><tspan x="0" dy="1.2em">ALT</tspan>
</text>
</g>
<g transform="translate(30, 90)" class="key keypos-6">
<rect rx="6" ry="6" x="-28" y="-28" width="56" height="56" class="key"/>
<text x="0" y="0" class="key tap">[</text>
</g>
<g transform="translate(90, 90)" class="key keypos-7">
<rect rx="6" ry="6" x="-28" y="-28" width="56" height="56" class="key"/>
<text x="0" y="0" class="key tap">]</text>
</g>
<g transform="translate(150, 90)" class="key keypos-8">
<rect rx="6" ry="6" x="-28" y="-28" width="56" height="56" class="key"/>
<text x="0" y="0" class="key tap">,</text>
</g>
<g transform="translate(210, 90)" class="key keypos-9">
<rect rx="6" ry="6" x="-28" y="-28" width="56" height="56" class="key"/>
<text x="0" y="0" class="key tap">.</text>
</g>
<g transform="translate(450, 90)" class="key keypos-10">
<rect rx="6" ry="6" x="-28" y="-28" width="56" height="56" class="key"/>
<text x="0" y="0" class="key tap">SPACE</text>
</g>
<g transform="translate(510, 90)" class="key keypos-11">
<rect rx="6" ry="6" x="-28" y="-28" width="56" height="56" class="key"/>
<text x="0" y="0" class="key tap">
<tspan x="0" dy="-0.6em">RIGHT</tspan><tspan x="0" dy="1.2em">GUI</tspan>
</text>
</g>
<g transform="translate(570, 90)" class="key held keypos-12">
<rect rx="6" ry="6" x="-28" y="-28" width="56" height="56" class="key held"/>
</g>
<g transform="translate(630, 90)" class="key keypos-13">
<rect rx="6" ry="6" x="-28" y="-28" width="56" height="56" class="key"/>
<text x="0" y="0" class="key tap">
<tspan x="0" dy="-0.6em">RIGHT</tspan><tspan x="0" dy="1.2em">SHIFT</tspan>
</text>
</g>
<g transform="translate(210, 150)" class="key keypos-14">
<rect rx="6" ry="6" x="-28" y="-28" width="56" height="56" class="key"/>
<text x="0" y="0" class="key tap">;</text>
</g>
<g transform="translate(270, 150)" class="key keypos-15">
<rect rx="6" ry="6" x="-28" y="-28" width="56" height="56" class="key"/>
<text x="0" y="0" class="key tap">-</text>
</g>
<g transform="translate(390, 150)" class="key keypos-16">
<rect rx="6" ry="6" x="-28" y="-28" width="56" height="56" class="key"/>
<text x="0" y="0" class="key tap">
<tspan x="0" dy="-0.6em">RIGHT</tspan><tspan x="0" dy="1.2em">COMMAND</tspan>
</text>
</g>
<g transform="translate(450, 150)" class="key keypos-17">
<rect rx="6" ry="6" x="-28" y="-28" width="56" height="56" class="key"/>
<text x="0" y="0" class="key tap"><tspan style="font-size: 78%">BACKSPACE</tspan></text>
</g>
<g class="combo combopos-0">
<rect rx="6" ry="6" x="106" y="17" width="28" height="26" class="combo"/>
<text x="120" y="30" class="combo tap">Q</text>
</g>
<g class="combo combopos-1">
<path d="M150,90 l40,0" class="combo"/>
<path d="M150,90 l-40,0" class="combo"/>
<rect rx="6" ry="6" x="136" y="77" width="28" height="26" class="combo"/>
<text x="150" y="90" class="combo tap">F</text>
</g>
<g class="combo combopos-2">
<path d="M330,90 l100,0" class="combo"/>
<path d="M330,90 l-100,0" class="combo"/>
<rect rx="6" ry="6" x="316" y="77" width="28" height="26" class="combo"/>
<text x="330" y="90" class="combo tap">Y</text>
</g>
<g class="combo combopos-3">
<rect rx="6" ry="6" x="526" y="17" width="28" height="26" class="combo"/>
<text x="540" y="30" class="combo tap">P</text>
</g>
<g class="combo combopos-4">
<rect rx="6" ry="6" x="166" y="77" width="28" height="26" class="combo"/>
<text x="180" y="90" class="combo tap">B</text>
</g>
<g class="combo combopos-5">
<rect rx="6" ry="6" x="466" y="77" width="28" height="26" class="combo"/>
<text x="480" y="90" class="combo tap">J</text>
</g>
<g class="combo combopos-6">
<rect rx="6" ry="6" x="106" y="77" width="28" height="26" class="combo"/>
<text x="120" y="90" class="combo tap">
<tspan x="120" dy="-0.6em" style="font-size: 88%">LANGUAGE</tspan><tspan x="120" dy="1.2em" style="font-size: 88%">2</tspan>
</text>
<text x="120" y="101" class="combo hold"><tspan style="font-size: 88%">LEFT GUI</tspan></text>
</g>
<g class="combo combopos-7">
<rect rx="6" ry="6" x="526" y="77" width="28" height="26" class="combo"/>
<text x="540" y="90" class="combo tap">
<tspan x="540" dy="-0.6em" style="font-size: 88%">LANGUAGE</tspan><tspan x="540" dy="1.2em" style="font-size: 88%">1</tspan>
</text>
<text x="540" y="101" class="combo hold"><tspan style="font-size: 78%">RIGHT GUI</tspan></text>
</g>
<g class="combo combopos-8">
<rect rx="6" ry="6" x="46" y="77" width="28" height="26" class="combo"/>
<text x="60" y="90" class="combo tap">LSHFT</text>
</g>
<g class="combo combopos-9">
<rect rx="6" ry="6" x="226" y="137" width="28" height="26" class="combo"/>
<text x="240" y="150" class="combo tap">LCTRL</text>
</g>
<g class="combo combopos-10">
<rect rx="6" ry="6" x="406" y="137" width="28" height="26" class="combo"/>
<text x="420" y="150" class="combo tap">
<tspan x="420" dy="-0.6em">RIGHT</tspan><tspan x="420" dy="1.2em">ALT</tspan>
</text>
</g>
<g class="combo combopos-11">
<rect rx="6" ry="6" x="586" y="47" width="28" height="26" class="combo"/>
<a href="#x_x">
<text x="600" y="60" class="combo tap layer-activator">5</text>
</a></g>
<g class="combo combopos-12">
<path d="M150,30 l-40,0" class="combo"/>
<path d="M150,30 l40,0" class="combo"/>
<rect rx="6" ry="6" x="136" y="17" width="28" height="26" class="combo"/>
<text x="150" y="30" class="combo tap">
<tspan x="150" dy="-0.6em">LEFT</tspan><tspan x="150" dy="1.2em">ALT</tspan>
</text>
</g>
<g class="combo combopos-13">
<path d="M510,30 l-40,0" class="combo"/>
<path d="M510,30 l40,0" class="combo"/>
<rect rx="6" ry="6" x="496" y="17" width="28" height="26" class="combo"/>
<text x="510" y="30" class="combo tap">RCTRL</text>
</g>
<g class="combo combopos-14">
<rect rx="6" ry="6" x="166" y="17" width="28" height="26" class="combo"/>
<text x="180" y="30" class="combo tap">X</text>
</g>
<g class="combo combopos-15">
<rect rx="6" ry="6" x="166" y="107" width="28" height="26" class="combo"/>
<text x="180" y="120" class="combo tap">C</text>
</g>
<g class="combo combopos-16">
<rect rx="6" ry="6" x="226" y="107" width="28" height="26" class="combo"/>
<text x="240" y="120" class="combo tap">V</text>
</g>
</g>
</g>
<g transform="translate(30, 472)" class="layer-2">
<text x="0" y="28" class="label" id="x_x">2:</text>
<g transform="translate(0, 56)">
<g transform="translate(90, 30)" class="key held keypos-0">
<rect rx="6" ry="6" x="-28" y="-28" width="56" height="56" class="key held"/>
</g>
<g transform="translate(150, 30)" class="key keypos-1">
<rect rx="6" ry="6" x="-28" y="-28" width="56" height="56" class="key"/>
<text x="0" y="0" class="key tap">
<tspan x="0" dy="-0.6em">LEFT</tspan><tspan x="0" dy="1.2em">SHIFT</tspan>
</text>
</g>
<g transform="translate(210, 30)" class="key keypos-2">
<rect rx="6" ry="6" x="-28" y="-28" width="56" height="56" class="key"/>
<text x="0" y="0" class="key tap">
<tspan x="0" dy="-0.6em">RIGHT</tspan><tspan x="0" dy="1.2em">GUI</tspan>
</text>
</g>
<g transform="translate(450, 30)" class="key trans keypos-3">
<rect rx="6" ry="6" x="-28" y="-28" width="56" height="56" class="key trans"/>
<text x="0" y="0" class="key trans tap">▽</text>
</g>
<g transform="translate(510, 30)" class="key keypos-4">
<rect rx="6" ry="6" x="-28" y="-28" width="56" height="56" class="key"/>
<text x="0" y="0" class="key tap">|</text>
</g>
<g transform="translate(570, 30)" class="key keypos-5">
<rect rx="6" ry="6" x="-28" y="-28" width="56" height="56" class="key"/>
<text x="0" y="0" class="key tap">
<tspan x="0" dy="-0.6em">UP</tspan><tspan x="0" dy="1.2em">ARROW</tspan>
</text>
</g>
<g transform="translate(30, 90)" class="key keypos-6">
<rect rx="6" ry="6" x="-28" y="-28" width="56" height="56" class="key"/>
<text x="0" y="0" class="key tap">ESCAPE</text>
</g>
<g transform="translate(90, 90)" class="key trans keypos-7">
<rect rx="6" ry="6" x="-28" y="-28" width="56" height="56" class="key trans"/>
<text x="0" y="0" class="key trans tap">▽</text>
</g>
<g transform="translate(150, 90)" class="key keypos-8">
<rect rx="6" ry="6" x="-28" y="-28" width="56" height="56" class="key"/>
<text x="0" y="0" class="key tap">DEL</text>
</g>
<g transform="translate(210, 90)" class="key keypos-9">
<rect rx="6" ry="6" x="-28" y="-28" width="56" height="56" class="key"/>
<text x="0" y="0" class="key tap">
<tspan x="0" dy="-0.6em">RIGHT</tspan><tspan x="0" dy="1.2em">ARROW</tspan>
</text>
</g>
<g transform="translate(450, 90)" class="key keypos-10">
<rect rx="6" ry="6" x="-28" y="-28" width="56" height="56" class="key"/>
<text x="0" y="0" class="key tap"><tspan style="font-size: 78%">BACKSPACE</tspan></text>
</g>
<g transform="translate(510, 90)" class="key keypos-11">
<rect rx="6" ry="6" x="-28" y="-28" width="56" height="56" class="key"/>
<text x="0" y="0" class="key tap">LEFT</text>
</g>
<g transform="translate(570, 90)" class="key keypos-12">
<rect rx="6" ry="6" x="-28" y="-28" width="56" height="56" class="key"/>
<text x="0" y="0" class="key tap">
<tspan x="0" dy="-0.6em">DOWN</tspan><tspan x="0" dy="1.2em">ARROW</tspan>
</text>
</g>
<g transform="translate(630, 90)" class="key keypos-13">
<rect rx="6" ry="6" x="-28" y="-28" width="56" height="56" class="key"/>
<text x="0" y="0" class="key tap">
<tspan x="0" dy="-0.6em">RIGHT</tspan><tspan x="0" dy="1.2em">ARROW</tspan>
</text>
</g>
<g transform="translate(210, 150)" class="key keypos-14">
<rect rx="6" ry="6" x="-28" y="-28" width="56" height="56" class="key"/>
<text x="0" y="0" class="key tap">TAB</text>
</g>
<g transform="translate(270, 150)" class="key keypos-15">
<rect rx="6" ry="6" x="-28" y="-28" width="56" height="56" class="key"/>
<text x="0" y="0" class="key tap">LEFT</text>
</g>
<g transform="translate(390, 150)" class="key keypos-16">
<rect rx="6" ry="6" x="-28" y="-28" width="56" height="56" class="key"/>
<text x="0" y="0" class="key tap">&#x27;</text>
</g>
<g transform="translate(450, 150)" class="key keypos-17">
<rect rx="6" ry="6" x="-28" y="-28" width="56" height="56" class="key"/>
<text x="0" y="0" class="key tap">
<tspan x="0" dy="-0.6em">Gui+</tspan><tspan x="0" dy="1.2em">ENTER</tspan>
</text>
</g>
<g class="combo combopos-0">
<rect rx="6" ry="6" x="106" y="17" width="28" height="26" class="combo"/>
<text x="120" y="30" class="combo tap">Q</text>
</g>
<g class="combo combopos-1">
<path d="M150,90 l40,0" class="combo"/>
<path d="M150,90 l-40,0" class="combo"/>
<rect rx="6" ry="6" x="136" y="77" width="28" height="26" class="combo"/>
<text x="150" y="90" class="combo tap">F</text>
</g>
<g class="combo combopos-2">
<path d="M330,90 l100,0" class="combo"/>
<path d="M330,90 l-100,0" class="combo"/>
<rect rx="6" ry="6" x="316" y="77" width="28" height="26" class="combo"/>
<text x="330" y="90" class="combo tap">Y</text>
</g>
<g class="combo combopos-3">
<rect rx="6" ry="6" x="526" y="17" width="28" height="26" class="combo"/>
<text x="540" y="30" class="combo tap">P</text>
</g>
<g class="combo combopos-4">
<rect rx="6" ry="6" x="166" y="77" width="28" height="26" class="combo"/>
<text x="180" y="90" class="combo tap">B</text>
</g>
<g class="combo combopos-5">
<rect rx="6" ry="6" x="466" y="77" width="28" height="26" class="combo"/>
<text x="480" y="90" class="combo tap">J</text>
</g>
<g class="combo combopos-6">
<rect rx="6" ry="6" x="106" y="77" width="28" height="26" class="combo"/>
<text x="120" y="90" class="combo tap">
<tspan x="120" dy="-0.6em" style="font-size: 88%">LANGUAGE</tspan><tspan x="120" dy="1.2em" style="font-size: 88%">2</tspan>
</text>
<text x="120" y="101" class="combo hold"><tspan style="font-size: 88%">LEFT GUI</tspan></text>
</g>
<g class="combo combopos-7">
<rect rx="6" ry="6" x="526" y="77" width="28" height="26" class="combo"/>
<text x="540" y="90" class="combo tap">
<tspan x="540" dy="-0.6em" style="font-size: 88%">LANGUAGE</tspan><tspan x="540" dy="1.2em" style="font-size: 88%">1</tspan>
</text>
<text x="540" y="101" class="combo hold"><tspan style="font-size: 78%">RIGHT GUI</tspan></text>
</g>
<g class="combo combopos-8">
<rect rx="6" ry="6" x="46" y="77" width="28" height="26" class="combo"/>
<text x="60" y="90" class="combo tap">LSHFT</text>
</g>
<g class="combo combopos-9">
<rect rx="6" ry="6" x="226" y="137" width="28" height="26" class="combo"/>
<text x="240" y="150" class="combo tap">LCTRL</text>
</g>
<g class="combo combopos-10">
<rect rx="6" ry="6" x="406" y="137" width="28" height="26" class="combo"/>
<text x="420" y="150" class="combo tap">
<tspan x="420" dy="-0.6em">RIGHT</tspan><tspan x="420" dy="1.2em">ALT</tspan>
</text>
</g>
<g class="combo combopos-11">
<rect rx="6" ry="6" x="586" y="47" width="28" height="26" class="combo"/>
<a href="#x_x">
<text x="600" y="60" class="combo tap layer-activator">5</text>
</a></g>
<g class="combo combopos-12">
<path d="M150,30 l-40,0" class="combo"/>
<path d="M150,30 l40,0" class="combo"/>
<rect rx="6" ry="6" x="136" y="17" width="28" height="26" class="combo"/>
<text x="150" y="30" class="combo tap">
<tspan x="150" dy="-0.6em">LEFT</tspan><tspan x="150" dy="1.2em">ALT</tspan>
</text>
</g>
<g class="combo combopos-13">
<path d="M510,30 l-40,0" class="combo"/>
<path d="M510,30 l40,0" class="combo"/>
<rect rx="6" ry="6" x="496" y="17" width="28" height="26" class="combo"/>
<text x="510" y="30" class="combo tap">RCTRL</text>
</g>
<g class="combo combopos-14">
<rect rx="6" ry="6" x="166" y="17" width="28" height="26" class="combo"/>
<text x="180" y="30" class="combo tap">X</text>
</g>
<g class="combo combopos-15">
<rect rx="6" ry="6" x="166" y="107" width="28" height="26" class="combo"/>
<text x="180" y="120" class="combo tap">C</text>
</g>
<g class="combo combopos-16">
<rect rx="6" ry="6" x="226" y="107" width="28" height="26" class="combo"/>
<text x="240" y="120" class="combo tap">V</text>
</g>
</g>
</g>
<g transform="translate(30, 708)" class="layer-3">
<text x="0" y="28" class="label" id="x_x">3:</text>
<g transform="translate(0, 56)">
<g transform="translate(90, 30)" class="key keypos-0">
<rect rx="6" ry="6" x="-28" y="-28" width="56" height="56" class="key"/>
<a href="#x_x">
<text x="0" y="0" class="key tap layer-activator">1</text>
</a></g>
<g transform="translate(150, 30)" class="key keypos-1">
<rect rx="6" ry="6" x="-28" y="-28" width="56" height="56" class="key"/>
<a href="#x_x">
<text x="0" y="0" class="key tap layer-activator">2</text>
</a></g>
<g transform="translate(210, 30)" class="key keypos-2">
<rect rx="6" ry="6" x="-28" y="-28" width="56" height="56" class="key"/>
<a href="#x_x">
<text x="0" y="0" class="key tap layer-activator">3</text>
</a></g>
<g transform="translate(450, 30)" class="key keypos-3">
<rect rx="6" ry="6" x="-28" y="-28" width="56" height="56" class="key"/>
<text x="0" y="0" class="key tap">=</text>
</g>
<g transform="translate(510, 30)" class="key keypos-4">
<rect rx="6" ry="6" x="-28" y="-28" width="56" height="56" class="key"/>
<a href="#x_x">
<text x="0" y="0" class="key tap layer-activator">4</text>
</a></g>
<g transform="translate(570, 30)" class="key keypos-5">
<rect rx="6" ry="6" x="-28" y="-28" width="56" height="56" class="key"/>
<text x="0" y="0" class="key tap">*</text>
<a href="#x_x">
<text x="0" y="26" class="key hold layer-activator">4</text>
</a></g>
<g transform="translate(30, 90)" class="key keypos-6">
<rect rx="6" ry="6" x="-28" y="-28" width="56" height="56" class="key"/>
<text x="0" y="0" class="key tap">7</text>
</g>
<g transform="translate(90, 90)" class="key keypos-7">
<rect rx="6" ry="6" x="-28" y="-28" width="56" height="56" class="key"/>
<a href="#x_x">
<text x="0" y="0" class="key tap layer-activator">4</text>
</a></g>
<g transform="translate(150, 90)" class="key keypos-8">
<rect rx="6" ry="6" x="-28" y="-28" width="56" height="56" class="key"/>
<a href="#x_x">
<text x="0" y="0" class="key tap layer-activator">5</text>
</a></g>
<g transform="translate(210, 90)" class="key keypos-9">
<rect rx="6" ry="6" x="-28" y="-28" width="56" height="56" class="key"/>
<text x="0" y="0" class="key tap">6</text>
</g>
<g transform="translate(450, 90)" class="key keypos-10">
<rect rx="6" ry="6" x="-28" y="-28" width="56" height="56" class="key"/>
<text x="0" y="0" class="key tap">-</text>
</g>
<g transform="translate(510, 90)" class="key held keypos-11">
<rect rx="6" ry="6" x="-28" y="-28" width="56" height="56" class="key held"/>
</g>
<g transform="translate(570, 90)" class="key keypos-12">
<rect rx="6" ry="6" x="-28" y="-28" width="56" height="56" class="key"/>
<text x="0" y="0" class="key tap">
<tspan x="0" dy="-0.6em">RIGHT</tspan><tspan x="0" dy="1.2em">SHIFT</tspan>
</text>
</g>
<g transform="translate(630, 90)" class="key keypos-13">
<rect rx="6" ry="6" x="-28" y="-28" width="56" height="56" class="key"/>
<text x="0" y="0" class="key tap">/</text>
</g>
<g transform="translate(210, 150)" class="key keypos-14">
<rect rx="6" ry="6" x="-28" y="-28" width="56" height="56" class="key"/>
<text x="0" y="0" class="key tap">8</text>
</g>
<g transform="translate(270, 150)" class="key keypos-15">
<rect rx="6" ry="6" x="-28" y="-28" width="56" height="56" class="key"/>
<text x="0" y="0" class="key tap">9</text>
</g>
<g transform="translate(390, 150)" class="key keypos-16">
<rect rx="6" ry="6" x="-28" y="-28" width="56" height="56" class="key"/>
<text x="0" y="0" class="key tap">0</text>
</g>
<g transform="translate(450, 150)" class="key keypos-17">
<rect rx="6" ry="6" x="-28" y="-28" width="56" height="56" class="key"/>
<text x="0" y="0" class="key tap">.</text>
</g>
<g class="combo combopos-0">
<rect rx="6" ry="6" x="106" y="17" width="28" height="26" class="combo"/>
<text x="120" y="30" class="combo tap">Q</text>
</g>
<g class="combo combopos-1">
<path d="M150,90 l40,0" class="combo"/>
<path d="M150,90 l-40,0" class="combo"/>
<rect rx="6" ry="6" x="136" y="77" width="28" height="26" class="combo"/>
<text x="150" y="90" class="combo tap">F</text>
</g>
<g class="combo combopos-2">
<path d="M330,90 l100,0" class="combo"/>
<path d="M330,90 l-100,0" class="combo"/>
<rect rx="6" ry="6" x="316" y="77" width="28" height="26" class="combo"/>
<text x="330" y="90" class="combo tap">Y</text>
</g>
<g class="combo combopos-3">
<rect rx="6" ry="6" x="526" y="17" width="28" height="26" class="combo"/>
<text x="540" y="30" class="combo tap">P</text>
</g>
<g class="combo combopos-4">
<rect rx="6" ry="6" x="166" y="77" width="28" height="26" class="combo"/>
<text x="180" y="90" class="combo tap">B</text>
</g>
<g class="combo combopos-5">
<rect rx="6" ry="6" x="466" y="77" width="28" height="26" class="combo"/>
<text x="480" y="90" class="combo tap">J</text>
</g>
<g class="combo combopos-6">
<rect rx="6" ry="6" x="106" y="77" width="28" height="26" class="combo"/>
<text x="120" y="90" class="combo tap">
<tspan x="120" dy="-0.6em" style="font-size: 88%">LANGUAGE</tspan><tspan x="120" dy="1.2em" style="font-size: 88%">2</tspan>
</text>
<text x="120" y="101" class="combo hold"><tspan style="font-size: 88%">LEFT GUI</tspan></text>
</g>
<g class="combo combopos-7">
<rect rx="6" ry="6" x="526" y="77" width="28" height="26" class="combo"/>
<text x="540" y="90" class="combo tap">
<tspan x="540" dy="-0.6em" style="font-size: 88%">LANGUAGE</tspan><tspan x="540" dy="1.2em" style="font-size: 88%">1</tspan>
</text>
<text x="540" y="101" class="combo hold"><tspan style="font-size: 78%">RIGHT GUI</tspan></text>
</g>
<g class="combo combopos-8">
<rect rx="6" ry="6" x="46" y="77" width="28" height="26" class="combo"/>
<text x="60" y="90" class="combo tap">LSHFT</text>
</g>
<g class="combo combopos-9">
<rect rx="6" ry="6" x="226" y="137" width="28" height="26" class="combo"/>
<text x="240" y="150" class="combo tap">LCTRL</text>
</g>
<g class="combo combopos-10">
<rect rx="6" ry="6" x="406" y="137" width="28" height="26" class="combo"/>
<text x="420" y="150" class="combo tap">
<tspan x="420" dy="-0.6em">RIGHT</tspan><tspan x="420" dy="1.2em">ALT</tspan>
</text>
</g>
<g class="combo combopos-11">
<rect rx="6" ry="6" x="586" y="47" width="28" height="26" class="combo"/>
<a href="#x_x">
<text x="600" y="60" class="combo tap layer-activator">5</text>
</a></g>
<g class="combo combopos-12">
<path d="M150,30 l-40,0" class="combo"/>
<path d="M150,30 l40,0" class="combo"/>
<rect rx="6" ry="6" x="136" y="17" width="28" height="26" class="combo"/>
<text x="150" y="30" class="combo tap">
<tspan x="150" dy="-0.6em">LEFT</tspan><tspan x="150" dy="1.2em">ALT</tspan>
</text>
</g>
<g class="combo combopos-13">
<path d="M510,30 l-40,0" class="combo"/>
<path d="M510,30 l40,0" class="combo"/>
<rect rx="6" ry="6" x="496" y="17" width="28" height="26" class="combo"/>
<text x="510" y="30" class="combo tap">RCTRL</text>
</g>
<g class="combo combopos-14">
<rect rx="6" ry="6" x="166" y="17" width="28" height="26" class="combo"/>
<text x="180" y="30" class="combo tap">X</text>
</g>
<g class="combo combopos-15">
<rect rx="6" ry="6" x="166" y="107" width="28" height="26" class="combo"/>
<text x="180" y="120" class="combo tap">C</text>
</g>
<g class="combo combopos-16">
<rect rx="6" ry="6" x="226" y="107" width="28" height="26" class="combo"/>
<text x="240" y="120" class="combo tap">V</text>
</g>
</g>
</g>
<g transform="translate(30, 944)" class="layer-4">
<text x="0" y="28" class="label" id="x_x">4:</text>
<g transform="translate(0, 56)">
<g transform="translate(90, 30)" class="key keypos-0">
<rect rx="6" ry="6" x="-28" y="-28" width="56" height="56" class="key"/>
<text x="0" y="0" class="key tap">F1</text>
</g>
<g transform="translate(150, 30)" class="key keypos-1">
<rect rx="6" ry="6" x="-28" y="-28" width="56" height="56" class="key"/>
<text x="0" y="0" class="key tap">F2</text>
</g>
<g transform="translate(210, 30)" class="key keypos-2">
<rect rx="6" ry="6" x="-28" y="-28" width="56" height="56" class="key"/>
<text x="0" y="0" class="key tap">F3</text>
</g>
<g transform="translate(450, 30)" class="key trans keypos-3">
<rect rx="6" ry="6" x="-28" y="-28" width="56" height="56" class="key trans"/>
<text x="0" y="0" class="key trans tap">▽</text>
</g>
<g transform="translate(510, 30)" class="key held keypos-4">
<rect rx="6" ry="6" x="-28" y="-28" width="56" height="56" class="key held"/>
</g>
<g transform="translate(570, 30)" class="key trans keypos-5">
<rect rx="6" ry="6" x="-28" y="-28" width="56" height="56" class="key trans"/>
<text x="0" y="0" class="key trans tap">▽</text>
</g>
<g transform="translate(30, 90)" class="key keypos-6">
<rect rx="6" ry="6" x="-28" y="-28" width="56" height="56" class="key"/>
<text x="0" y="0" class="key tap">F7</text>
</g>
<g transform="translate(90, 90)" class="key keypos-7">
<rect rx="6" ry="6" x="-28" y="-28" width="56" height="56" class="key"/>
<text x="0" y="0" class="key tap">F4</text>
</g>
<g transform="translate(150, 90)" class="key keypos-8">
<rect rx="6" ry="6" x="-28" y="-28" width="56" height="56" class="key"/>
<text x="0" y="0" class="key tap">F5</text>
</g>
<g transform="translate(210, 90)" class="key keypos-9">
<rect rx="6" ry="6" x="-28" y="-28" width="56" height="56" class="key"/>
<text x="0" y="0" class="key tap">F6</text>
</g>
<g transform="translate(450, 90)" class="key keypos-10">
<rect rx="6" ry="6" x="-28" y="-28" width="56" height="56" class="key"/>
<text x="0" y="0" class="key tap">F12</text>
</g>
<g transform="translate(510, 90)" class="key held keypos-11">
<rect rx="6" ry="6" x="-28" y="-28" width="56" height="56" class="key held"/>
</g>
<g transform="translate(570, 90)" class="key trans keypos-12">
<rect rx="6" ry="6" x="-28" y="-28" width="56" height="56" class="key trans"/>
<text x="0" y="0" class="key trans tap">▽</text>
</g>
<g transform="translate(630, 90)" class="key trans keypos-13">
<rect rx="6" ry="6" x="-28" y="-28" width="56" height="56" class="key trans"/>
<text x="0" y="0" class="key trans tap">▽</text>
</g>
<g transform="translate(210, 150)" class="key keypos-14">
<rect rx="6" ry="6" x="-28" y="-28" width="56" height="56" class="key"/>
<text x="0" y="0" class="key tap">F8</text>
</g>
<g transform="translate(270, 150)" class="key keypos-15">
<rect rx="6" ry="6" x="-28" y="-28" width="56" height="56" class="key"/>
<text x="0" y="0" class="key tap">F9</text>
</g>
<g transform="translate(390, 150)" class="key keypos-16">
<rect rx="6" ry="6" x="-28" y="-28" width="56" height="56" class="key"/>
<text x="0" y="0" class="key tap">F10</text>
</g>
<g transform="translate(450, 150)" class="key keypos-17">
<rect rx="6" ry="6" x="-28" y="-28" width="56" height="56" class="key"/>
<text x="0" y="0" class="key tap">F11</text>
</g>
<g class="combo combopos-0">
<rect rx="6" ry="6" x="106" y="17" width="28" height="26" class="combo"/>
<text x="120" y="30" class="combo tap">Q</text>
</g>
<g class="combo combopos-1">
<path d="M150,90 l40,0" class="combo"/>
<path d="M150,90 l-40,0" class="combo"/>
<rect rx="6" ry="6" x="136" y="77" width="28" height="26" class="combo"/>
<text x="150" y="90" class="combo tap">F</text>
</g>
<g class="combo combopos-2">
<path d="M330,90 l100,0" class="combo"/>
<path d="M330,90 l-100,0" class="combo"/>
<rect rx="6" ry="6" x="316" y="77" width="28" height="26" class="combo"/>
<text x="330" y="90" class="combo tap">Y</text>
</g>
<g class="combo combopos-3">
<rect rx="6" ry="6" x="526" y="17" width="28" height="26" class="combo"/>
<text x="540" y="30" class="combo tap">P</text>
</g>
<g class="combo combopos-4">
<rect rx="6" ry="6" x="166" y="77" width="28" height="26" class="combo"/>
<text x="180" y="90" class="combo tap">B</text>
</g>
<g class="combo combopos-5">
<rect rx="6" ry="6" x="466" y="77" width="28" height="26" class="combo"/>
<text x="480" y="90" class="combo tap">J</text>
</g>
<g class="combo combopos-6">
<rect rx="6" ry="6" x="106" y="77" width="28" height="26" class="combo"/>
<text x="120" y="90" class="combo tap">
<tspan x="120" dy="-0.6em" style="font-size: 88%">LANGUAGE</tspan><tspan x="120" dy="1.2em" style="font-size: 88%">2</tspan>
</text>
<text x="120" y="101" class="combo hold"><tspan style="font-size: 88%">LEFT GUI</tspan></text>
</g>
<g class="combo combopos-7">
<rect rx="6" ry="6" x="526" y="77" width="28" height="26" class="combo"/>
<text x="540" y="90" class="combo tap">
<tspan x="540" dy="-0.6em" style="font-size: 88%">LANGUAGE</tspan><tspan x="540" dy="1.2em" style="font-size: 88%">1</tspan>
</text>
<text x="540" y="101" class="combo hold"><tspan style="font-size: 78%">RIGHT GUI</tspan></text>
</g>
<g class="combo combopos-8">
<rect rx="6" ry="6" x="46" y="77" width="28" height="26" class="combo"/>
<text x="60" y="90" class="combo tap">LSHFT</text>
</g>
<g class="combo combopos-9">
<rect rx="6" ry="6" x="226" y="137" width="28" height="26" class="combo"/>
<text x="240" y="150" class="combo tap">LCTRL</text>
</g>
<g class="combo combopos-10">
<rect rx="6" ry="6" x="406" y="137" width="28" height="26" class="combo"/>
<text x="420" y="150" class="combo tap">
<tspan x="420" dy="-0.6em">RIGHT</tspan><tspan x="420" dy="1.2em">ALT</tspan>
</text>
</g>
<g class="combo combopos-11">
<rect rx="6" ry="6" x="586" y="47" width="28" height="26" class="combo"/>
<a href="#x_x">
<text x="600" y="60" class="combo tap layer-activator">5</text>
</a></g>
<g class="combo combopos-12">
<path d="M150,30 l-40,0" class="combo"/>
<path d="M150,30 l40,0" class="combo"/>
<rect rx="6" ry="6" x="136" y="17" width="28" height="26" class="combo"/>
<text x="150" y="30" class="combo tap">
<tspan x="150" dy="-0.6em">LEFT</tspan><tspan x="150" dy="1.2em">ALT</tspan>
</text>
</g>
<g class="combo combopos-13">
<path d="M510,30 l-40,0" class="combo"/>
<path d="M510,30 l40,0" class="combo"/>
<rect rx="6" ry="6" x="496" y="17" width="28" height="26" class="combo"/>
<text x="510" y="30" class="combo tap">RCTRL</text>
</g>
<g class="combo combopos-14">
<rect rx="6" ry="6" x="166" y="17" width="28" height="26" class="combo"/>
<text x="180" y="30" class="combo tap">X</text>
</g>
<g class="combo combopos-15">
<rect rx="6" ry="6" x="166" y="107" width="28" height="26" class="combo"/>
<text x="180" y="120" class="combo tap">C</text>
</g>
<g class="combo combopos-16">
<rect rx="6" ry="6" x="226" y="107" width="28" height="26" class="combo"/>
<text x="240" y="120" class="combo tap">V</text>
</g>
</g>
</g>
<g transform="translate(30, 1180)" class="layer-5">
<text x="0" y="28" class="label" id="x_x">5:</text>
<g transform="translate(0, 56)">
<g transform="translate(90, 30)" class="key trans keypos-0">
<rect rx="6" ry="6" x="-28" y="-28" width="56" height="56" class="key trans"/>
<text x="0" y="0" class="key trans tap">▽</text>
</g>
<g transform="translate(150, 30)" class="key trans keypos-1">
<rect rx="6" ry="6" x="-28" y="-28" width="56" height="56" class="key trans"/>
<text x="0" y="0" class="key trans tap">▽</text>
</g>
<g transform="translate(210, 30)" class="key trans keypos-2">
<rect rx="6" ry="6" x="-28" y="-28" width="56" height="56" class="key trans"/>
<text x="0" y="0" class="key trans tap">▽</text>
</g>
<g transform="translate(450, 30)" class="key trans keypos-3">
<rect rx="6" ry="6" x="-28" y="-28" width="56" height="56" class="key trans"/>
<text x="0" y="0" class="key trans tap">▽</text>
</g>
<g transform="translate(510, 30)" class="key trans keypos-4">
<rect rx="6" ry="6" x="-28" y="-28" width="56" height="56" class="key trans"/>
<text x="0" y="0" class="key trans tap">▽</text>
</g>
<g transform="translate(570, 30)" class="key held keypos-5">
<rect rx="6" ry="6" x="-28" y="-28" width="56" height="56" class="key held"/>
</g>
<g transform="translate(30, 90)" class="key keypos-6">
<rect rx="6" ry="6" x="-28" y="-28" width="56" height="56" class="key"/>
<text x="0" y="0" class="key tap">BT</text>
<text x="0" y="26" class="key hold">0</text>
</g>
<g transform="translate(90, 90)" class="key keypos-7">
<rect rx="6" ry="6" x="-28" y="-28" width="56" height="56" class="key"/>
<text x="0" y="0" class="key tap">BT</text>
<a href="#x_x">
<text x="0" y="26" class="key hold layer-activator">1</text>
</a></g>
<g transform="translate(150, 90)" class="key keypos-8">
<rect rx="6" ry="6" x="-28" y="-28" width="56" height="56" class="key"/>
<text x="0" y="0" class="key tap">BT</text>
<a href="#x_x">
<text x="0" y="26" class="key hold layer-activator">2</text>
</a></g>
<g transform="translate(210, 90)" class="key keypos-9">
<rect rx="6" ry="6" x="-28" y="-28" width="56" height="56" class="key"/>
<text x="0" y="0" class="key tap">BT</text>
<a href="#x_x">
<text x="0" y="26" class="key hold layer-activator">3</text>
</a></g>
<g transform="translate(450, 90)" class="key keypos-10">
<rect rx="6" ry="6" x="-28" y="-28" width="56" height="56" class="key"/>
<text x="0" y="0" class="key tap">BT</text>
<a href="#x_x">
<text x="0" y="26" class="key hold layer-activator">4</text>
</a></g>
<g transform="translate(510, 90)" class="key trans keypos-11">
<rect rx="6" ry="6" x="-28" y="-28" width="56" height="56" class="key trans"/>
<text x="0" y="0" class="key trans tap">▽</text>
</g>
<g transform="translate(570, 90)" class="key trans keypos-12">
<rect rx="6" ry="6" x="-28" y="-28" width="56" height="56" class="key trans"/>
<text x="0" y="0" class="key trans tap">▽</text>
</g>
<g transform="translate(630, 90)" class="key held keypos-13">
<rect rx="6" ry="6" x="-28" y="-28" width="56" height="56" class="key held"/>
</g>
<g transform="translate(210, 150)" class="key trans keypos-14">
<rect rx="6" ry="6" x="-28" y="-28" width="56" height="56" class="key trans"/>
<text x="0" y="0" class="key trans tap">▽</text>
</g>
<g transform="translate(270, 150)" class="key trans keypos-15">
<rect rx="6" ry="6" x="-28" y="-28" width="56" height="56" class="key trans"/>
<text x="0" y="0" class="key trans tap">▽</text>
</g>
<g transform="translate(390, 150)" class="key trans keypos-16">
<rect rx="6" ry="6" x="-28" y="-28" width="56" height="56" class="key trans"/>
<text x="0" y="0" class="key trans tap">▽</text>
</g>
<g transform="translate(450, 150)" class="key trans keypos-17">
<rect rx="6" ry="6" x="-28" y="-28" width="56" height="56" class="key trans"/>
<text x="0" y="0" class="key trans tap">▽</text>
</g>
<g class="combo combopos-0">
<rect rx="6" ry="6" x="106" y="17" width="28" height="26" class="combo"/>
<text x="120" y="30" class="combo tap">Q</text>
</g>
<g class="combo combopos-1">
<path d="M150,90 l40,0" class="combo"/>
<path d="M150,90 l-40,0" class="combo"/>
<rect rx="6" ry="6" x="136" y="77" width="28" height="26" class="combo"/>
<text x="150" y="90" class="combo tap">F</text>
</g>
<g class="combo combopos-2">
<path d="M330,90 l100,0" class="combo"/>
<path d="M330,90 l-100,0" class="combo"/>
<rect rx="6" ry="6" x="316" y="77" width="28" height="26" class="combo"/>
<text x="330" y="90" class="combo tap">Y</text>
</g>
<g class="combo combopos-3">
<rect rx="6" ry="6" x="526" y="17" width="28" height="26" class="combo"/>
<text x="540" y="30" class="combo tap">P</text>
</g>
<g class="combo combopos-4">
<rect rx="6" ry="6" x="166" y="77" width="28" height="26" class="combo"/>
<text x="180" y="90" class="combo tap">B</text>
</g>
<g class="combo combopos-5">
<rect rx="6" ry="6" x="466" y="77" width="28" height="26" class="combo"/>
<text x="480" y="90" class="combo tap">J</text>
</g>
<g class="combo combopos-6">
<rect rx="6" ry="6" x="106" y="77" width="28" height="26" class="combo"/>
<text x="120" y="90" class="combo tap">
<tspan x="120" dy="-0.6em" style="font-size: 88%">LANGUAGE</tspan><tspan x="120" dy="1.2em" style="font-size: 88%">2</tspan>
</text>
<text x="120" y="101" class="combo hold"><tspan style="font-size: 88%">LEFT GUI</tspan></text>
</g>
<g class="combo combopos-7">
<rect rx="6" ry="6" x="526" y="77" width="28" height="26" class="combo"/>
<text x="540" y="90" class="combo tap">
<tspan x="540" dy="-0.6em" style="font-size: 88%">LANGUAGE</tspan><tspan x="540" dy="1.2em" style="font-size: 88%">1</tspan>
</text>
<text x="540" y="101" class="combo hold"><tspan style="font-size: 78%">RIGHT GUI</tspan></text>
</g>
<g class="combo combopos-8">
<rect rx="6" ry="6" x="46" y="77" width="28" height="26" class="combo"/>
<text x="60" y="90" class="combo tap">LSHFT</text>
</g>
<g class="combo combopos-9">
<rect rx="6" ry="6" x="226" y="137" width="28" height="26" class="combo"/>
<text x="240" y="150" class="combo tap">LCTRL</text>
</g>
<g class="combo combopos-10">
<rect rx="6" ry="6" x="406" y="137" width="28" height="26" class="combo"/>
<text x="420" y="150" class="combo tap">
<tspan x="420" dy="-0.6em">RIGHT</tspan><tspan x="420" dy="1.2em">ALT</tspan>
</text>
</g>
<g class="combo combopos-11">
<rect rx="6" ry="6" x="586" y="47" width="28" height="26" class="combo"/>
<a href="#x_x">
<text x="600" y="60" class="combo tap layer-activator">5</text>
</a></g>
<g class="combo combopos-12">
<path d="M150,30 l-40,0" class="combo"/>
<path d="M150,30 l40,0" class="combo"/>
<rect rx="6" ry="6" x="136" y="17" width="28" height="26" class="combo"/>
<text x="150" y="30" class="combo tap">
<tspan x="150" dy="-0.6em">LEFT</tspan><tspan x="150" dy="1.2em">ALT</tspan>
</text>
</g>
<g class="combo combopos-13">
<path d="M510,30 l-40,0" class="combo"/>
<path d="M510,30 l40,0" class="combo"/>
<rect rx="6" ry="6" x="496" y="17" width="28" height="26" class="combo"/>
<text x="510" y="30" class="combo tap">RCTRL</text>
</g>
<g class="combo combopos-14">
<rect rx="6" ry="6" x="166" y="17" width="28" height="26" class="combo"/>
<text x="180" y="30" class="combo tap">X</text>
</g>
<g class="combo combopos-15">
<rect rx="6" ry="6" x="166" y="107" width="28" height="26" class="combo"/>
<text x="180" y="120" class="combo tap">C</text>
</g>
<g class="combo combopos-16">
<rect rx="6" ry="6" x="226" y="107" width="28" height="26" class="combo"/>
<text x="240" y="120" class="combo tap">V</text>
</g>
</g>
</g>
<text x="690.0" y="1444.0" class="footer">tiny18 (auto-generated)</text></svg>
